<mxfile host="app.diagrams.net" modified="2022-02-06T15:55:39.619Z" agent="5.0 (Macintosh; Intel Mac OS X 10_15_7) AppleWebKit/537.36 (KHTML, like Gecko) Chrome/97.0.4692.99 Safari/537.36" etag="Zz9bKNA9pyzxMdL7DtHb" version="16.4.5" type="github">
  <diagram id="hbMNqV1sr74UlJle1mxt" name="Page-1">
    <mxGraphModel dx="1426" dy="700" grid="1" gridSize="10" guides="1" tooltips="1" connect="1" arrows="1" fold="1" page="1" pageScale="1" pageWidth="827" pageHeight="1169" math="0" shadow="0">
      <root>
        <mxCell id="0" />
        <mxCell id="1" parent="0" />
        <mxCell id="m1uw9QwLYW34gCNkkZYr-8" value="" style="rounded=0;whiteSpace=wrap;html=1;" parent="1" vertex="1">
          <mxGeometry x="190" y="950" width="220" height="300" as="geometry" />
        </mxCell>
        <mxCell id="EE4eSrxhoVSziB-Tx2y3-11" value="클라이언트" style="rounded=0;whiteSpace=wrap;html=1;shadow=0;glass=0;sketch=1;fillStyle=auto;fontSize=25;strokeColor=#FFFF33;fillColor=#F8CECC;" parent="1" vertex="1">
          <mxGeometry x="80" y="200" width="120" height="80" as="geometry" />
        </mxCell>
        <mxCell id="EE4eSrxhoVSziB-Tx2y3-12" value="서버" style="rounded=0;whiteSpace=wrap;html=1;shadow=0;glass=0;sketch=1;fillStyle=auto;fontSize=25;strokeColor=#FFFF33;fillColor=#F8CECC;" parent="1" vertex="1">
          <mxGeometry x="640" y="200" width="120" height="80" as="geometry" />
        </mxCell>
        <mxCell id="EE4eSrxhoVSziB-Tx2y3-13" value="" style="curved=1;endArrow=classic;html=1;rounded=0;fontSize=25;entryX=0;entryY=0;entryDx=0;entryDy=0;exitX=1;exitY=0;exitDx=0;exitDy=0;" parent="1" source="EE4eSrxhoVSziB-Tx2y3-11" target="EE4eSrxhoVSziB-Tx2y3-12" edge="1">
          <mxGeometry width="50" height="50" relative="1" as="geometry">
            <mxPoint x="390" y="410" as="sourcePoint" />
            <mxPoint x="440" y="360" as="targetPoint" />
            <Array as="points">
              <mxPoint x="320" y="170" />
              <mxPoint x="410" y="170" />
              <mxPoint x="480" y="170" />
            </Array>
          </mxGeometry>
        </mxCell>
        <mxCell id="EE4eSrxhoVSziB-Tx2y3-15" value="1. SYN" style="text;html=1;strokeColor=none;fillColor=none;align=center;verticalAlign=middle;whiteSpace=wrap;rounded=0;shadow=0;glass=0;sketch=1;fillStyle=auto;fontSize=25;" parent="1" vertex="1">
          <mxGeometry x="369" y="140" width="90" height="30" as="geometry" />
        </mxCell>
        <mxCell id="EE4eSrxhoVSziB-Tx2y3-16" value="" style="endArrow=classic;html=1;rounded=0;fontSize=25;exitX=0;exitY=0.5;exitDx=0;exitDy=0;entryX=1;entryY=0.5;entryDx=0;entryDy=0;" parent="1" source="EE4eSrxhoVSziB-Tx2y3-12" target="EE4eSrxhoVSziB-Tx2y3-11" edge="1">
          <mxGeometry width="50" height="50" relative="1" as="geometry">
            <mxPoint x="390" y="400" as="sourcePoint" />
            <mxPoint x="440" y="350" as="targetPoint" />
          </mxGeometry>
        </mxCell>
        <mxCell id="EE4eSrxhoVSziB-Tx2y3-17" value="" style="curved=1;endArrow=classic;html=1;rounded=0;fontSize=25;entryX=0;entryY=0.925;entryDx=0;entryDy=0;exitX=0.95;exitY=1.025;exitDx=0;exitDy=0;entryPerimeter=0;exitPerimeter=0;" parent="1" source="EE4eSrxhoVSziB-Tx2y3-11" target="EE4eSrxhoVSziB-Tx2y3-12" edge="1">
          <mxGeometry width="50" height="50" relative="1" as="geometry">
            <mxPoint x="390" y="400" as="sourcePoint" />
            <mxPoint x="440" y="350" as="targetPoint" />
            <Array as="points">
              <mxPoint x="460" y="340" />
            </Array>
          </mxGeometry>
        </mxCell>
        <mxCell id="EE4eSrxhoVSziB-Tx2y3-18" value="2 SYN + ACK" style="text;html=1;strokeColor=none;fillColor=none;align=center;verticalAlign=middle;whiteSpace=wrap;rounded=0;shadow=0;glass=0;sketch=1;fillStyle=auto;fontSize=25;" parent="1" vertex="1">
          <mxGeometry x="328.5" y="210" width="171" height="30" as="geometry" />
        </mxCell>
        <mxCell id="EE4eSrxhoVSziB-Tx2y3-20" value="3. ACK" style="text;html=1;strokeColor=none;fillColor=none;align=center;verticalAlign=middle;whiteSpace=wrap;rounded=0;shadow=0;glass=0;sketch=1;fillStyle=auto;fontSize=25;" parent="1" vertex="1">
          <mxGeometry x="369" y="280" width="96" height="30" as="geometry" />
        </mxCell>
        <mxCell id="EE4eSrxhoVSziB-Tx2y3-21" value="" style="endArrow=classic;html=1;rounded=0;fontSize=25;exitX=0.667;exitY=1.063;exitDx=0;exitDy=0;exitPerimeter=0;" parent="1" source="EE4eSrxhoVSziB-Tx2y3-11" edge="1">
          <mxGeometry width="50" height="50" relative="1" as="geometry">
            <mxPoint x="390" y="370" as="sourcePoint" />
            <mxPoint x="710" y="285" as="targetPoint" />
            <Array as="points">
              <mxPoint x="160" y="360" />
              <mxPoint x="710" y="360" />
            </Array>
          </mxGeometry>
        </mxCell>
        <mxCell id="EE4eSrxhoVSziB-Tx2y3-22" value="4. 데이터 전송" style="text;html=1;strokeColor=none;fillColor=none;align=center;verticalAlign=middle;whiteSpace=wrap;rounded=0;shadow=0;glass=0;sketch=1;fillStyle=auto;fontSize=25;" parent="1" vertex="1">
          <mxGeometry x="297" y="330" width="240" height="30" as="geometry" />
        </mxCell>
        <mxCell id="EE4eSrxhoVSziB-Tx2y3-23" value="" style="ellipse;whiteSpace=wrap;html=1;rounded=0;shadow=0;glass=0;sketch=1;fillStyle=auto;fontSize=25;strokeColor=#FFFF33;fillColor=#F8CECC;" parent="1" vertex="1">
          <mxGeometry x="150" y="460" width="580" height="260" as="geometry" />
        </mxCell>
        <mxCell id="EE4eSrxhoVSziB-Tx2y3-24" value="URI" style="text;html=1;strokeColor=none;fillColor=none;align=center;verticalAlign=middle;whiteSpace=wrap;rounded=0;shadow=0;glass=0;sketch=1;fillStyle=auto;fontSize=25;" parent="1" vertex="1">
          <mxGeometry x="410" y="440" width="60" height="30" as="geometry" />
        </mxCell>
        <mxCell id="EE4eSrxhoVSziB-Tx2y3-25" value="URN" style="ellipse;whiteSpace=wrap;html=1;aspect=fixed;rounded=0;shadow=0;glass=0;sketch=1;fillStyle=auto;fontSize=25;strokeColor=#C73500;fillColor=#fa6800;fontColor=#000000;" parent="1" vertex="1">
          <mxGeometry x="224" y="495" width="190" height="190" as="geometry" />
        </mxCell>
        <mxCell id="EE4eSrxhoVSziB-Tx2y3-26" value="URL" style="ellipse;whiteSpace=wrap;html=1;aspect=fixed;rounded=0;shadow=0;glass=0;sketch=1;fillStyle=auto;fontSize=25;strokeColor=#C73500;fillColor=#fa6800;fontColor=#000000;" parent="1" vertex="1">
          <mxGeometry x="490" y="495" width="190" height="190" as="geometry" />
        </mxCell>
        <mxCell id="IyWRXOBCoYsZJ8dKv43--1" value="" style="rounded=0;whiteSpace=wrap;html=1;" parent="1" vertex="1">
          <mxGeometry x="200" y="800" width="200" height="120" as="geometry" />
        </mxCell>
        <mxCell id="IyWRXOBCoYsZJ8dKv43--2" value="HTTP" style="text;html=1;strokeColor=none;fillColor=none;align=center;verticalAlign=middle;whiteSpace=wrap;rounded=0;" parent="1" vertex="1">
          <mxGeometry x="270" y="800" width="60" height="30" as="geometry" />
        </mxCell>
        <mxCell id="IyWRXOBCoYsZJ8dKv43--4" value="GET /member/1 HTTP/1.1&lt;br&gt;Host: localhost:8080" style="text;html=1;strokeColor=none;fillColor=none;align=left;verticalAlign=middle;whiteSpace=wrap;rounded=0;" parent="1" vertex="1">
          <mxGeometry x="200" y="800" width="200" height="80" as="geometry" />
        </mxCell>
        <mxCell id="m1uw9QwLYW34gCNkkZYr-1" value="" style="rounded=0;whiteSpace=wrap;html=1;" parent="1" vertex="1">
          <mxGeometry x="200" y="960" width="200" height="100" as="geometry" />
        </mxCell>
        <mxCell id="m1uw9QwLYW34gCNkkZYr-2" value="브라우저" style="text;html=1;strokeColor=none;fillColor=none;align=center;verticalAlign=middle;whiteSpace=wrap;rounded=0;" parent="1" vertex="1">
          <mxGeometry x="270" y="960" width="60" height="30" as="geometry" />
        </mxCell>
        <mxCell id="m1uw9QwLYW34gCNkkZYr-3" value="HTTP message" style="rounded=0;whiteSpace=wrap;html=1;fillColor=#007FFF;strokeColor=#007FFF;gradientColor=none;" parent="1" vertex="1">
          <mxGeometry x="259.5" y="990" width="81" height="30" as="geometry" />
        </mxCell>
        <mxCell id="m1uw9QwLYW34gCNkkZYr-4" value="SOCKET 라이브러리" style="rounded=0;whiteSpace=wrap;html=1;" parent="1" vertex="1">
          <mxGeometry x="210" y="1025" width="180" height="30" as="geometry" />
        </mxCell>
        <mxCell id="m1uw9QwLYW34gCNkkZYr-5" value="" style="endArrow=classic;html=1;rounded=0;" parent="1" edge="1">
          <mxGeometry width="50" height="50" relative="1" as="geometry">
            <mxPoint x="390" y="1040" as="sourcePoint" />
            <mxPoint x="440" y="1040" as="targetPoint" />
            <Array as="points" />
          </mxGeometry>
        </mxCell>
        <mxCell id="m1uw9QwLYW34gCNkkZYr-7" value="3way&lt;br&gt;handshake" style="text;html=1;strokeColor=none;fillColor=none;align=center;verticalAlign=middle;whiteSpace=wrap;rounded=0;" parent="1" vertex="1">
          <mxGeometry x="432" y="1026" width="60" height="30" as="geometry" />
        </mxCell>
        <mxCell id="m1uw9QwLYW34gCNkkZYr-10" value="" style="rounded=0;whiteSpace=wrap;html=1;" parent="1" vertex="1">
          <mxGeometry x="200" y="1070" width="200" height="80" as="geometry" />
        </mxCell>
        <mxCell id="m1uw9QwLYW34gCNkkZYr-9" value="" style="endArrow=classic;html=1;rounded=0;exitX=0.5;exitY=1;exitDx=0;exitDy=0;" parent="1" source="m1uw9QwLYW34gCNkkZYr-3" edge="1">
          <mxGeometry width="50" height="50" relative="1" as="geometry">
            <mxPoint x="280" y="1125" as="sourcePoint" />
            <mxPoint x="300" y="1086" as="targetPoint" />
          </mxGeometry>
        </mxCell>
        <mxCell id="m1uw9QwLYW34gCNkkZYr-11" value="OS 계층" style="text;html=1;strokeColor=none;fillColor=none;align=center;verticalAlign=middle;whiteSpace=wrap;rounded=0;" parent="1" vertex="1">
          <mxGeometry x="198" y="1068" width="60" height="30" as="geometry" />
        </mxCell>
        <mxCell id="m1uw9QwLYW34gCNkkZYr-14" value="" style="rounded=0;whiteSpace=wrap;html=1;strokeColor=#d79b00;fillColor=#ffe6cc;" parent="1" vertex="1">
          <mxGeometry x="256" y="1092" width="88" height="56" as="geometry" />
        </mxCell>
        <mxCell id="m1uw9QwLYW34gCNkkZYr-13" value="HTTP message" style="rounded=0;whiteSpace=wrap;html=1;fillColor=#007FFF;strokeColor=#007FFF;gradientColor=none;" parent="1" vertex="1">
          <mxGeometry x="259.5" y="1098" width="81" height="30" as="geometry" />
        </mxCell>
        <mxCell id="m1uw9QwLYW34gCNkkZYr-15" value="TCP/IP" style="text;html=1;strokeColor=none;fillColor=none;align=center;verticalAlign=middle;whiteSpace=wrap;rounded=0;" parent="1" vertex="1">
          <mxGeometry x="269" y="1123" width="60" height="30" as="geometry" />
        </mxCell>
        <mxCell id="m1uw9QwLYW34gCNkkZYr-16" value="" style="rounded=0;whiteSpace=wrap;html=1;strokeColor=#000000;fillColor=none;gradientColor=none;" parent="1" vertex="1">
          <mxGeometry x="200" y="1160" width="200" height="80" as="geometry" />
        </mxCell>
        <mxCell id="m1uw9QwLYW34gCNkkZYr-17" value="네트워크 인터페이스" style="text;html=1;strokeColor=none;fillColor=none;align=center;verticalAlign=middle;whiteSpace=wrap;rounded=0;" parent="1" vertex="1">
          <mxGeometry x="200" y="1160" width="60" height="30" as="geometry" />
        </mxCell>
        <mxCell id="m1uw9QwLYW34gCNkkZYr-18" value="Icon" style="icon;html=1;image=img/clipart/Gear_128x128.png;strokeColor=#000000;fillColor=none;gradientColor=none;" parent="1" vertex="1">
          <mxGeometry x="233" y="1190" width="36" height="40" as="geometry" />
        </mxCell>
        <mxCell id="m1uw9QwLYW34gCNkkZYr-19" value="LAN장비" style="text;html=1;strokeColor=none;fillColor=none;align=center;verticalAlign=middle;whiteSpace=wrap;rounded=0;" parent="1" vertex="1">
          <mxGeometry x="268.5" y="1190" width="60" height="30" as="geometry" />
        </mxCell>
        <mxCell id="m1uw9QwLYW34gCNkkZYr-20" value="" style="curved=1;endArrow=classic;html=1;rounded=0;exitX=0.5;exitY=1;exitDx=0;exitDy=0;" parent="1" source="m1uw9QwLYW34gCNkkZYr-15" edge="1">
          <mxGeometry width="50" height="50" relative="1" as="geometry">
            <mxPoint x="360" y="1080" as="sourcePoint" />
            <mxPoint x="440" y="1220" as="targetPoint" />
            <Array as="points">
              <mxPoint x="330" y="1210" />
              <mxPoint x="370" y="1220" />
            </Array>
          </mxGeometry>
        </mxCell>
        <mxCell id="m1uw9QwLYW34gCNkkZYr-21" value="서버" style="label;whiteSpace=wrap;html=1;align=center;verticalAlign=bottom;spacingLeft=0;spacingBottom=4;imageAlign=center;imageVerticalAlign=top;image=img/clipart/Gear_128x128.png;strokeColor=#000000;fillColor=none;gradientColor=none;" parent="1" vertex="1">
          <mxGeometry x="450" y="1190" width="70" height="60" as="geometry" />
        </mxCell>
        <mxCell id="m1uw9QwLYW34gCNkkZYr-22" value="www.xxx.com" style="text;html=1;strokeColor=none;fillColor=none;align=center;verticalAlign=middle;whiteSpace=wrap;rounded=0;" parent="1" vertex="1">
          <mxGeometry x="455" y="1160" width="60" height="30" as="geometry" />
        </mxCell>
        <mxCell id="m1uw9QwLYW34gCNkkZYr-24" value="Server A" style="label;whiteSpace=wrap;html=1;align=center;verticalAlign=bottom;spacingLeft=0;spacingBottom=4;imageAlign=center;imageVerticalAlign=top;image=img/clipart/Gear_128x128.png;strokeColor=#000000;fillColor=none;gradientColor=none;" parent="1" vertex="1">
          <mxGeometry x="400" y="1320" width="70" height="60" as="geometry" />
        </mxCell>
        <mxCell id="m1uw9QwLYW34gCNkkZYr-25" value="Server B" style="label;whiteSpace=wrap;html=1;align=center;verticalAlign=bottom;spacingLeft=0;spacingBottom=4;imageAlign=center;imageVerticalAlign=top;image=img/clipart/Gear_128x128.png;strokeColor=#000000;fillColor=none;gradientColor=none;" parent="1" vertex="1">
          <mxGeometry x="400" y="1400" width="70" height="60" as="geometry" />
        </mxCell>
        <mxCell id="m1uw9QwLYW34gCNkkZYr-26" value="" style="shape=actor;whiteSpace=wrap;html=1;strokeColor=#000000;fillColor=none;gradientColor=none;" parent="1" vertex="1">
          <mxGeometry x="120" y="1360" width="40" height="60" as="geometry" />
        </mxCell>
        <mxCell id="m1uw9QwLYW34gCNkkZYr-27" value="클라이언트" style="text;html=1;strokeColor=none;fillColor=none;align=center;verticalAlign=middle;whiteSpace=wrap;rounded=0;" parent="1" vertex="1">
          <mxGeometry x="110" y="1415" width="60" height="30" as="geometry" />
        </mxCell>
        <mxCell id="m1uw9QwLYW34gCNkkZYr-28" value="중계서버" style="shape=cube;whiteSpace=wrap;html=1;boundedLbl=1;backgroundOutline=1;darkOpacity=0.05;darkOpacity2=0.1;strokeColor=#000000;fillColor=none;gradientColor=none;" parent="1" vertex="1">
          <mxGeometry x="238.5" y="1370" width="71.5" height="55" as="geometry" />
        </mxCell>
        <mxCell id="m1uw9QwLYW34gCNkkZYr-29" value="" style="endArrow=classic;html=1;rounded=0;" parent="1" edge="1">
          <mxGeometry width="50" height="50" relative="1" as="geometry">
            <mxPoint x="170" y="1400" as="sourcePoint" />
            <mxPoint x="230" y="1400" as="targetPoint" />
          </mxGeometry>
        </mxCell>
        <mxCell id="m1uw9QwLYW34gCNkkZYr-30" value="" style="endArrow=classic;html=1;rounded=0;" parent="1" edge="1">
          <mxGeometry width="50" height="50" relative="1" as="geometry">
            <mxPoint x="320" y="1400" as="sourcePoint" />
            <mxPoint x="390" y="1360" as="targetPoint" />
          </mxGeometry>
        </mxCell>
        <mxCell id="m1uw9QwLYW34gCNkkZYr-31" value="" style="endArrow=classic;html=1;rounded=0;" parent="1" edge="1">
          <mxGeometry width="50" height="50" relative="1" as="geometry">
            <mxPoint x="390" y="1340" as="sourcePoint" />
            <mxPoint x="360" y="1340" as="targetPoint" />
          </mxGeometry>
        </mxCell>
        <mxCell id="m1uw9QwLYW34gCNkkZYr-32" value="응답" style="text;html=1;strokeColor=none;fillColor=none;align=center;verticalAlign=middle;whiteSpace=wrap;rounded=0;" parent="1" vertex="1">
          <mxGeometry x="315" y="1325" width="60" height="30" as="geometry" />
        </mxCell>
        <mxCell id="m1uw9QwLYW34gCNkkZYr-33" value="상태보관 하지 않음" style="text;html=1;strokeColor=none;fillColor=none;align=center;verticalAlign=middle;whiteSpace=wrap;rounded=0;" parent="1" vertex="1">
          <mxGeometry x="405" y="1290" width="60" height="30" as="geometry" />
        </mxCell>
      </root>
    </mxGraphModel>
  </diagram>
</mxfile>
